<svg width="20" height="20" viewBox="0 0 20 20" fill="none" xmlns="http://www.w3.org/2000/svg">
<path d="M10 0.00100708C15.524 0.00100708 20 4.47801 20 10.001C20 15.524 15.524 20.001 10 20.001C4.478 20.001 0 15.524 0 10.001C0 4.47801 4.478 0.00100708 10 0.00100708V0.00100708ZM10.781 5.47001L10.697 5.39701C10.5695 5.30259 10.4153 5.25104 10.2566 5.24978C10.098 5.24853 9.943 5.29762 9.814 5.39001L9.72 5.47001L9.648 5.55401C9.55358 5.68153 9.50203 5.8357 9.50078 5.99437C9.49952 6.15303 9.54861 6.30801 9.641 6.43701L9.721 6.53101L12.44 9.25101H5.75L5.648 9.25701C5.4857 9.27932 5.33518 9.35417 5.21942 9.4701C5.10367 9.58603 5.02906 9.73668 5.007 9.89901L5 10L5.007 10.102C5.02927 10.2642 5.10396 10.4146 5.2197 10.5303C5.33543 10.646 5.48585 10.7207 5.648 10.743L5.75 10.75H12.44L9.72 13.47L9.647 13.555C9.53868 13.6994 9.48609 13.8781 9.49889 14.0582C9.51169 14.2383 9.58901 14.4077 9.71667 14.5353C9.84433 14.663 10.0138 14.7403 10.1938 14.7531C10.3739 14.7659 10.5526 14.7133 10.697 14.605L10.78 14.532L14.782 10.532L14.854 10.447C14.9483 10.3197 14.9999 10.1658 15.0014 10.0073C15.0028 9.84885 14.954 9.69402 14.862 9.56501L14.782 9.47101L10.782 5.47001L10.697 5.39701L10.781 5.47001V5.47001Z" fill="#212121"/>
</svg>
