<svg width="20" height="16" viewBox="0 0 20 16" fill="none" xmlns="http://www.w3.org/2000/svg">
<path d="M15.784 6.708C16.39 7.3212 16.8973 8.02453 17.288 8.793C17.3477 8.90994 17.3839 9.03751 17.3943 9.16842C17.4048 9.29932 17.3893 9.43101 17.3489 9.55595C17.3085 9.68089 17.2438 9.79664 17.1586 9.8966C17.0735 9.99655 16.9694 10.0788 16.8525 10.1385C16.7355 10.1983 16.608 10.2344 16.4771 10.2448C16.3462 10.2553 16.2145 10.2399 16.0895 10.1994C15.9646 10.159 15.8489 10.0943 15.7489 10.0091C15.6489 9.92397 15.5667 9.81994 15.507 9.703C15.2114 9.12105 14.8279 8.58813 14.37 8.123C13.6855 7.43821 12.8484 6.92537 11.9274 6.62652C11.0064 6.32767 10.0277 6.25132 9.07148 6.40373C8.11528 6.55614 7.2088 6.93296 6.42635 7.50332C5.64389 8.07367 5.00773 8.82133 4.56999 9.685C4.44684 9.91558 4.23829 10.0888 3.98901 10.1675C3.73973 10.2462 3.46955 10.2241 3.23631 10.1061C3.00308 9.98804 2.82535 9.78335 2.74118 9.53587C2.65701 9.28838 2.6731 9.01777 2.78599 8.782C3.3664 7.63637 4.21002 6.64457 5.24771 5.8879C6.2854 5.13123 7.48763 4.63122 8.75586 4.42886C10.0241 4.2265 11.3222 4.32754 12.5439 4.7237C13.7655 5.11987 14.8759 5.79988 15.784 6.708V6.708ZM13.735 9.7C14.195 10.16 14.573 10.724 14.836 11.324C14.8887 11.4443 14.9172 11.5738 14.9199 11.7051C14.9226 11.8364 14.8994 11.967 14.8516 12.0893C14.8038 12.2116 14.7324 12.3234 14.6415 12.4181C14.5505 12.5129 14.4418 12.5888 14.3215 12.6415C14.2012 12.6942 14.0717 12.7227 13.9404 12.7254C13.8091 12.7281 13.6785 12.7049 13.5562 12.6571C13.4338 12.6093 13.3221 12.5379 13.2274 12.447C13.1326 12.356 13.0567 12.2473 13.004 12.127C12.8401 11.7504 12.6087 11.4071 12.321 11.114C11.7147 10.5077 10.8924 10.1672 10.035 10.1672C9.17758 10.1672 8.35529 10.5077 7.74899 11.114C7.46475 11.4026 7.23685 11.7418 7.07699 12.114C7.02538 12.2358 6.95009 12.3462 6.8555 12.4388C6.76091 12.5313 6.64889 12.6042 6.52594 12.6531C6.40299 12.702 6.27155 12.7261 6.13925 12.7238C6.00694 12.7216 5.87639 12.6931 5.75517 12.64C5.63395 12.587 5.52446 12.5104 5.43306 12.4147C5.34166 12.319 5.27016 12.2061 5.22271 12.0826C5.17525 11.959 5.15279 11.8273 5.15661 11.6951C5.16044 11.5628 5.19048 11.4326 5.24499 11.312C5.5047 10.7114 5.87438 10.1647 6.33499 9.7C7.31635 8.7188 8.64726 8.16758 10.035 8.16758C11.4227 8.16758 12.7536 8.7188 13.735 9.7V9.7ZM18.419 4.299C18.927 4.807 19.406 5.386 19.823 5.99C19.9715 6.20833 20.0276 6.47651 19.9791 6.73605C19.9306 6.99558 19.7814 7.22541 19.5641 7.37538C19.3468 7.52535 19.079 7.5833 18.8192 7.53658C18.5593 7.48986 18.3284 7.34227 18.177 7.126C17.827 6.62 17.425 6.133 17.005 5.713C13.133 1.841 6.85499 1.841 2.98199 5.713C2.58199 6.112 2.18499 6.599 1.82199 7.123C1.67082 7.34101 1.43923 7.49004 1.17818 7.53729C0.917131 7.58455 0.647999 7.52618 0.429991 7.375C0.211983 7.22383 0.0629575 6.99224 0.0156983 6.73119C-0.0315608 6.47014 0.0268177 6.20101 0.177991 5.983C0.605991 5.365 1.07799 4.788 1.56799 4.299C6.22099 -0.354998 13.766 -0.354998 18.419 4.299V4.299ZM11.061 12.441C11.2038 12.5796 11.3176 12.7452 11.3959 12.9281C11.4741 13.1111 11.5152 13.3078 11.5167 13.5068C11.5183 13.7058 11.4802 13.9031 11.4048 14.0872C11.3293 14.2713 11.2181 14.4387 11.0774 14.5794C10.9367 14.7201 10.7695 14.8315 10.5853 14.907C10.4012 14.9825 10.204 15.0207 10.005 15.0192C9.80598 15.0178 9.60927 14.9768 9.42626 14.8987C9.24326 14.8205 9.07763 14.7068 8.93899 14.564C8.66434 14.2812 8.51197 13.9017 8.51481 13.5075C8.51765 13.1133 8.67546 12.736 8.95415 12.4572C9.23285 12.1783 9.61005 12.0203 10.0043 12.0173C10.3985 12.0143 10.7781 12.1665 11.061 12.441V12.441Z" fill="#212121"/>
</svg>
